<svg id="Layer_1" data-name="Layer 1" xmlns="http://www.w3.org/2000/svg" viewBox="0 0 308.51 91.14"><defs><style>.cls-1{fill:#01b6ef;}.cls-2{fill:#0050e7;}</style></defs><title>logo-black-1</title><rect class="cls-1" x="223.86" y="9.65" width="0.52" height="0.52" transform="translate(72.85 178.72) rotate(-54.64)"/><path class="cls-1" d="M249.31,28.11,227.85,8.23h20.78l5.42,9.26Z" transform="translate(-13.49 -8.23)"/><path class="cls-1" d="M245.92,32,224.46,12.07v19.2l9.26,5.2Z" transform="translate(-13.49 -8.23)"/><path class="cls-1" d="M247.42,69.32" transform="translate(-13.49 -8.23)"/><path class="cls-1" d="M226.94,74.51" transform="translate(-13.49 -8.23)"/><path class="cls-1" d="M253.38,32.63l18,16.29q-.1-11.65-.2-23.3l-12.65-5.87Z" transform="translate(-13.49 -8.23)"/><path class="cls-1" d="M242.53,52.06l24.85-.23L250,35.79l-12.65,4.29Z" transform="translate(-13.49 -8.23)"/><path class="cls-1" d="M236.43,51.83h-12V37.15l8.13,4.74Z" transform="translate(-13.49 -8.23)"/><path class="cls-1" d="M271.4,20.27l.1-12-16.77-.06,4.52,7.45Z" transform="translate(-13.49 -8.23)"/><path class="cls-1" d="M297.15,28.11,318.61,8.23H297.83l-5.43,9.26Z" transform="translate(-13.49 -8.23)"/><path class="cls-1" d="M300.54,32,322,12.07v19.2l-9.26,5.2Z" transform="translate(-13.49 -8.23)"/><path class="cls-1" d="M293.08,32.63,275,48.92q.1-11.65.19-23.3l12.66-5.87Z" transform="translate(-13.49 -8.23)"/><path class="cls-1" d="M303.93,52.06l-24.86-.23,17.4-16,12.65,4.29Z" transform="translate(-13.49 -8.23)"/><path class="cls-1" d="M310,51.83h12V37.15l-8.13,4.74Z" transform="translate(-13.49 -8.23)"/><path class="cls-1" d="M275.06,20.27l-.11-12,16.78-.06-4.52,7.45Z" transform="translate(-13.49 -8.23)"/><path class="cls-1" d="M249.31,79.48,227.85,99.37h20.78l5.42-9.27Z" transform="translate(-13.49 -8.23)"/><path class="cls-1" d="M245.92,75.64,224.46,95.52V76.32l9.26-5.19Z" transform="translate(-13.49 -8.23)"/><path class="cls-1" d="M253.38,75l18-16.3q-.1,11.65-.2,23.3l-12.65,5.87Z" transform="translate(-13.49 -8.23)"/><path class="cls-1" d="M242.53,55.54l24.85.22L250,71.8l-12.65-4.29Z" transform="translate(-13.49 -8.23)"/><path class="cls-1" d="M236.43,55.76h-12V70.45l8.13-4.75Z" transform="translate(-13.49 -8.23)"/><path class="cls-1" d="M271.4,87.33l.1,12-16.77.07,4.52-7.46Z" transform="translate(-13.49 -8.23)"/><path class="cls-1" d="M297.15,79.48l21.46,19.89H297.83L292.4,90.1Z" transform="translate(-13.49 -8.23)"/><path class="cls-1" d="M300.54,75.64,322,95.52V76.32l-9.26-5.19Z" transform="translate(-13.49 -8.23)"/><path class="cls-1" d="M293.08,75l-18-16.3q.1,11.65.19,23.3l12.66,5.87Z" transform="translate(-13.49 -8.23)"/><path class="cls-1" d="M303.93,55.54l-24.86.22,17.4,16,12.65-4.29Z" transform="translate(-13.49 -8.23)"/><path class="cls-1" d="M310,55.76h12V70.45l-8.13-4.75Z" transform="translate(-13.49 -8.23)"/><path class="cls-1" d="M275.06,87.33l-.11,12,16.78.07c-1.51-2.49-3-5-4.52-7.46Z" transform="translate(-13.49 -8.23)"/><path class="cls-2" d="M25.9,69.85q0,7.64-6.08,7.7-6.27.06-6.33-8.38h3.78V55.89c0-2.27.44-3.89,1.31-4.84A11.81,11.81,0,0,1,22,49.19a9.77,9.77,0,0,0,3.91-2.67Z" transform="translate(-13.49 -8.23)"/><path class="cls-2" d="M51.28,67c0,4-1,6.83-2.86,8.44-1.69,1.36-4.24,2.07-7.63,2.11q-10.23.06-10.24-8.5H43.21V65.39H30.55V58.13a13.17,13.17,0,0,1,5-10.93q2.36-1.86,8.07-3,5.52-1.11,7.63-2.91ZM43.21,56.82V52a4.93,4.93,0,0,0-3.41,1.43,5.22,5.22,0,0,0-1.37,3.41Z" transform="translate(-13.49 -8.23)"/><path class="cls-2" d="M67.72,59.24q0,6.15-5.64,6.15H54c-2.9,0-4.34-1.41-4.34-4.22V56.82h9.49V51.24c0-2,.37-3.4,1.12-4.22a12.73,12.73,0,0,1,3.07-1.49,11.35,11.35,0,0,0,4.37-3ZM58.79,36.59A3,3,0,0,1,57.86,39a3.47,3.47,0,0,1-2.49,1.12,3.6,3.6,0,0,1-3.47-3.54,3.15,3.15,0,0,1,1-2.39,3.71,3.71,0,0,1,2.45-1,3.29,3.29,0,0,1,3.42,3.41Zm8.62,0A2.7,2.7,0,0,1,66.3,39a3.19,3.19,0,0,1-2.49,1.12,2.84,2.84,0,0,1-2.35-1.06,3.87,3.87,0,0,1-1.06-2.48,4,4,0,0,1,1.06-2.42,3.74,3.74,0,0,1,2.35-1,3.29,3.29,0,0,1,2.46,1A3.47,3.47,0,0,1,67.41,36.59Z" transform="translate(-13.49 -8.23)"/><path class="cls-2" d="M129.72,58.87c0,4.34-1.78,6.52-5.34,6.52h-15.7a11.79,11.79,0,0,1-12.29,12.1q-7.26,0-10.55-4.41A13.33,13.33,0,0,1,83.3,64.7,10.33,10.33,0,0,1,85.5,58a7.42,7.42,0,0,1,6.11-2.73V62.9q0,5.71,4.53,5.71,5,0,5-5.46v-7A4.16,4.16,0,0,1,103,52.35a26.42,26.42,0,0,1,5.65-2.23v6.7h3V53a4.75,4.75,0,0,1,1.73-4q1.24-.68,5.78-2.48v10.3h3v-4.9a9.86,9.86,0,0,1,.93-5A15,15,0,0,1,126,45.06a17.07,17.07,0,0,0,3.76-2.7Z" transform="translate(-13.49 -8.23)"/><path class="cls-2" d="M146.22,59.24q0,6.15-5.64,6.15h-8.07c-2.9,0-4.34-1.41-4.34-4.22V56.82h9.49V51.24c0-2,.37-3.4,1.12-4.22a12.73,12.73,0,0,1,3.07-1.49,11.28,11.28,0,0,0,4.37-3Zm-9.06,13.34a3.13,3.13,0,0,1-1,2.46,3.57,3.57,0,0,1-2.45,1.08A3.71,3.71,0,0,1,131.27,75a3.47,3.47,0,0,1-1-2.42,3.37,3.37,0,0,1,1-2.48,3.62,3.62,0,0,1,2.48-.93Q137,69.17,137.16,72.58Zm8.57,0A3.26,3.26,0,0,1,144.64,75a3.58,3.58,0,0,1-2.39,1.12A3.51,3.51,0,0,1,139.83,75a3.35,3.35,0,0,1-1.05-2.42,4,4,0,0,1,1.05-2.48,3.57,3.57,0,0,1,2.42-.93,3.26,3.26,0,0,1,2.42.93A3.52,3.52,0,0,1,145.73,72.58Z" transform="translate(-13.49 -8.23)"/><path class="cls-2" d="M178.68,58.87c0,4.34-1.76,6.52-5.28,6.52H149q-4.15,0-4.15-4V56.82h5.33v-.68a4.38,4.38,0,0,1,1.93-3.79,25.25,25.25,0,0,1,5.58-2.23v6.7h3V53a4.73,4.73,0,0,1,1.74-4,51.54,51.54,0,0,1,5.77-2.48v10.3h3v-4.9a9.77,9.77,0,0,1,1-5,4.88,4.88,0,0,1,2.42-1.61,12.55,12.55,0,0,0,4.1-3Z" transform="translate(-13.49 -8.23)"/><path class="cls-2" d="M195.87,69.85q0,7.64-6.08,7.7-6.27.06-6.33-8.38h3.78V55.89c0-2.27.44-3.89,1.31-4.84A11.81,11.81,0,0,1,192,49.19a9.77,9.77,0,0,0,3.91-2.67Z" transform="translate(-13.49 -8.23)"/><path class="cls-2" d="M212.38,59.24c0,4.1-1.89,6.15-5.65,6.15h-8.07q-4.33,0-4.34-4.22V56.82h9.49V51.24c0-2,.38-3.4,1.12-4.22A12.73,12.73,0,0,1,208,45.53a11.39,11.39,0,0,0,4.38-3Zm-8.94,13.22a3.47,3.47,0,0,0-.93-2.42,3.56,3.56,0,0,0-4.93,0,3.22,3.22,0,0,0-1,2.42,3.44,3.44,0,0,0,1,2.54A4,4,0,0,0,200,76a3.31,3.31,0,0,0,3.41-3.54Zm4.34,7.63a3.53,3.53,0,0,0-3.47-3.53,3.66,3.66,0,0,0-3.48,3.53,3.28,3.28,0,0,0,1.06,2.36,3.58,3.58,0,0,0,2.42,1.12,3.61,3.61,0,0,0,3.47-3.48ZM212,72.46a3.33,3.33,0,0,0-1-2.39,3.39,3.39,0,0,0-2.54-1,3.4,3.4,0,0,0-3.42,3.41A3.91,3.91,0,0,0,206.11,75a3.33,3.33,0,0,0,2.36,1,3.56,3.56,0,0,0,2.42-1A3.25,3.25,0,0,0,212,72.46Z" transform="translate(-13.49 -8.23)"/></svg>