<svg id="Layer_1" data-name="Layer 1" xmlns="http://www.w3.org/2000/svg" viewBox="0 0 314.9 93.02"><defs><style>.cls-1,.cls-3{fill:#fff;}.cls-1{stroke:#000;stroke-miterlimit:10;}.cls-2{fill:#01b6ef;}</style></defs><title>logo-white-1</title><path class="cls-1" d="M209.35,28.64" transform="translate(-9.1 -9.29)"/><path class="cls-2" d="M249.8,29.58,227.9,9.29h21.21l5.54,9.45Z" transform="translate(-9.1 -9.29)"/><path class="cls-2" d="M246.35,33.5,224.44,13.21v19.6l9.45,5.3Z" transform="translate(-9.1 -9.29)"/><path class="cls-2" d="M247.88,71.65" transform="translate(-9.1 -9.29)"/><path class="cls-2" d="M227,77" transform="translate(-9.1 -9.29)"/><path class="cls-2" d="M254,34.19q9.19,8.33,18.41,16.63-.11-11.88-.2-23.78l-12.91-6Q256.61,27.62,254,34.19Z" transform="translate(-9.1 -9.29)"/><path class="cls-2" d="M242.89,54l25.36-.23L250.5,37.42,237.58,41.8Z" transform="translate(-9.1 -9.29)"/><path class="cls-2" d="M236.66,53.79H224.44v-15l8.3,4.85Z" transform="translate(-9.1 -9.29)"/><path class="cls-2" d="M272.35,21.58l.11-12.22-17.12-.07q2.31,3.8,4.61,7.61Z" transform="translate(-9.1 -9.29)"/><path class="cls-2" d="M298.63,29.58,320.54,9.29H299.33l-5.54,9.45Z" transform="translate(-9.1 -9.29)"/><path class="cls-2" d="M302.09,33.5,324,13.21v19.6l-9.45,5.3Z" transform="translate(-9.1 -9.29)"/><path class="cls-2" d="M294.48,34.19q-9.19,8.33-18.41,16.63.1-11.88.2-23.78l12.91-6Q291.83,27.62,294.48,34.19Z" transform="translate(-9.1 -9.29)"/><path class="cls-2" d="M305.55,54l-25.36-.23,17.75-16.37,12.92,4.38Z" transform="translate(-9.1 -9.29)"/><path class="cls-2" d="M311.78,53.79H324v-15l-8.3,4.85Z" transform="translate(-9.1 -9.29)"/><path class="cls-2" d="M276.09,21.58,276,9.36l17.12-.07q-2.31,3.8-4.61,7.61Z" transform="translate(-9.1 -9.29)"/><path class="cls-2" d="M249.8,82l-21.9,20.29h21.21l5.54-9.45Z" transform="translate(-9.1 -9.29)"/><path class="cls-2" d="M246.35,78.1,224.44,98.39V78.79l9.45-5.3Z" transform="translate(-9.1 -9.29)"/><path class="cls-2" d="M254,77.41q9.19-8.32,18.41-16.63-.11,11.88-.2,23.78l-12.91,6Q256.61,84,254,77.41Z" transform="translate(-9.1 -9.29)"/><path class="cls-2" d="M242.89,57.58l25.36.23L250.5,74.18,237.58,69.8Z" transform="translate(-9.1 -9.29)"/><path class="cls-2" d="M236.66,57.81H224.44v15l8.3-4.85Z" transform="translate(-9.1 -9.29)"/><path class="cls-2" d="M272.35,90l.11,12.22-17.12.07q2.31-3.8,4.61-7.61Z" transform="translate(-9.1 -9.29)"/><path class="cls-2" d="M298.63,82l21.91,20.29H299.33l-5.54-9.45Z" transform="translate(-9.1 -9.29)"/><path class="cls-2" d="M302.09,78.1,324,98.39V78.79l-9.45-5.3Z" transform="translate(-9.1 -9.29)"/><path class="cls-2" d="M294.48,77.41q-9.19-8.32-18.41-16.63.1,11.88.2,23.78l12.91,6Q291.83,84,294.48,77.41Z" transform="translate(-9.1 -9.29)"/><path class="cls-2" d="M305.55,57.58l-25.36.23,17.75,16.37,12.92-4.38Z" transform="translate(-9.1 -9.29)"/><path class="cls-2" d="M311.78,57.81H324v15L315.7,68Z" transform="translate(-9.1 -9.29)"/><path class="cls-2" d="M276.09,90,276,102.24l17.12.07q-2.31-3.8-4.61-7.61Z" transform="translate(-9.1 -9.29)"/><path class="cls-3" d="M21.77,72.19q0,7.78-6.21,7.85-6.39.06-6.46-8.55H13V57.94c0-2.32.45-4,1.33-4.94a11.88,11.88,0,0,1,3.49-1.9,10,10,0,0,0,4-2.73Z" transform="translate(-9.1 -9.29)"/><path class="cls-3" d="M47.68,69.27c0,4.1-1,7-2.92,8.62Q42.17,80,37,80q-10.45.06-10.45-8.67H39.44V67.63H26.52V60.22a13.43,13.43,0,0,1,5.13-11.15c1.6-1.27,4.35-2.28,8.23-3s6.36-1.75,7.8-3ZM39.44,58.89V54A5,5,0,0,0,36,55.4a5.33,5.33,0,0,0-1.4,3.49Z" transform="translate(-9.1 -9.29)"/><path class="cls-3" d="M64.46,61.36q0,6.27-5.76,6.27H50.46Q46,67.63,46,63.32V58.89h9.69v-5.7c0-2,.38-3.47,1.14-4.31A13,13,0,0,1,60,47.36a11.4,11.4,0,0,0,4.47-3.11ZM55.34,38.24a3.1,3.1,0,0,1-1,2.47,3.54,3.54,0,0,1-2.53,1.14,3.67,3.67,0,0,1-3.55-3.61,3.23,3.23,0,0,1,1-2.44,3.8,3.8,0,0,1,2.51-1,3.37,3.37,0,0,1,3.48,3.49Zm8.8,0A2.72,2.72,0,0,1,63,40.71a3.24,3.24,0,0,1-2.53,1.14,3,3,0,0,1-2.41-1.08A4,4,0,0,1,57,38.24a4,4,0,0,1,1.07-2.47,3.86,3.86,0,0,1,2.41-1,3.32,3.32,0,0,1,2.5,1A3.51,3.51,0,0,1,64.14,38.24Z" transform="translate(-9.1 -9.29)"/><path class="cls-3" d="M127.74,61q0,6.65-5.45,6.65h-16A12,12,0,0,1,93.72,80Q86.31,80,83,75.48a13.52,13.52,0,0,1-2.6-8.55,10.55,10.55,0,0,1,2.25-6.84,7.56,7.56,0,0,1,6.24-2.79v7.79q0,5.84,4.62,5.83,5.07,0,5.07-5.57V58.19a4.22,4.22,0,0,1,1.9-3.86,27,27,0,0,1,5.76-2.28v6.84h3V55A4.78,4.78,0,0,1,111,50.91c.84-.47,2.8-1.31,5.89-2.54V58.89H120v-5a10,10,0,0,1,.95-5.06,14.63,14.63,0,0,1,3-1.94,17.56,17.56,0,0,0,3.83-2.75Z" transform="translate(-9.1 -9.29)"/><path class="cls-3" d="M144.59,61.36q0,6.27-5.77,6.27h-8.23q-4.44,0-4.44-4.31V58.89h9.7v-5.7c0-2,.38-3.47,1.14-4.31a13,13,0,0,1,3.13-1.52,11.47,11.47,0,0,0,4.47-3.11ZM135.34,75a3.23,3.23,0,0,1-1,2.5,3.73,3.73,0,0,1-2.51,1.11,3.83,3.83,0,0,1-2.53-1.14,3.58,3.58,0,0,1-1-2.47,3.5,3.5,0,0,1,1-2.54,3.72,3.72,0,0,1,2.53-1Q135.21,71.49,135.34,75Zm8.74,0A3.37,3.37,0,0,1,143,77.45a3.77,3.77,0,0,1-2.44,1.14,3.6,3.6,0,0,1-2.47-1.14A3.46,3.46,0,0,1,137,75a4.09,4.09,0,0,1,1.07-2.54,3.64,3.64,0,0,1,2.47-1,3.34,3.34,0,0,1,2.47,1A3.62,3.62,0,0,1,144.08,75Z" transform="translate(-9.1 -9.29)"/><path class="cls-3" d="M177.71,61q0,6.65-5.38,6.65h-25q-4.25,0-4.24-4.06V58.89h5.45v-.7a4.46,4.46,0,0,1,2-3.86,25.48,25.48,0,0,1,5.7-2.28v6.84h3.1V55a4.81,4.81,0,0,1,1.78-4.11A51.74,51.74,0,0,1,167,48.37V58.89h3v-5a9.92,9.92,0,0,1,1-5.06,4.92,4.92,0,0,1,2.47-1.65,12.94,12.94,0,0,0,4.18-3Z" transform="translate(-9.1 -9.29)"/><path class="cls-3" d="M195.26,72.19q0,7.78-6.21,7.85-6.39.06-6.46-8.55h3.86V57.94c0-2.32.45-4,1.33-4.94a11.88,11.88,0,0,1,3.49-1.9,10,10,0,0,0,4-2.73Z" transform="translate(-9.1 -9.29)"/><path class="cls-3" d="M212.11,61.36q0,6.27-5.77,6.27h-8.23q-4.44,0-4.44-4.31V58.89h9.7v-5.7c0-2,.38-3.47,1.14-4.31a13,13,0,0,1,3.13-1.52,11.47,11.47,0,0,0,4.47-3.11ZM203,74.85a3.55,3.55,0,0,0-1-2.47,3.65,3.65,0,0,0-5,0,3.29,3.29,0,0,0-1,2.47,3.52,3.52,0,0,0,1,2.6,4.07,4.07,0,0,0,2.53,1A3.37,3.37,0,0,0,203,74.85Zm4.43,7.79A3.62,3.62,0,0,0,203.87,79a3.45,3.45,0,0,0-2.44,1.08,3.39,3.39,0,0,0-1.1,2.53,3.32,3.32,0,0,0,1.07,2.41,3.72,3.72,0,0,0,2.47,1.14,3.7,3.7,0,0,0,3.55-3.55Zm4.31-7.79a3.39,3.39,0,0,0-1-2.44,3.43,3.43,0,0,0-2.59-1,3.47,3.47,0,0,0-3.49,3.48,4,4,0,0,0,1.08,2.6,3.45,3.45,0,0,0,2.41,1,3.69,3.69,0,0,0,2.47-1A3.34,3.34,0,0,0,211.73,74.85Z" transform="translate(-9.1 -9.29)"/></svg>