<svg id="Layer_1" data-name="Layer 1" xmlns="http://www.w3.org/2000/svg" viewBox="0 0 75.02 70.1"><defs><style>.cls-1{fill:#01b6ef;}</style></defs><title>logo-mobile-1</title><path class="cls-1" d="M22.31,35.19,5.8,19.9h16L26,27Z" transform="translate(-3.19 -19.9)"/><path class="cls-1" d="M19.7,38.15Q11.45,30.5,3.19,22.86V37.63l7.13,4Z" transform="translate(-3.19 -19.9)"/><path class="cls-1" d="M20.86,66.89" transform="translate(-3.19 -19.9)"/><path class="cls-1" d="M5.1,70.89" transform="translate(-3.19 -19.9)"/><path class="cls-1" d="M25.44,38.67,39.31,51.2l-.15-17.92-9.73-4.52Z" transform="translate(-3.19 -19.9)"/><path class="cls-1" d="M17.09,53.61l19.12-.17L22.83,41.1,13.1,44.4Z" transform="translate(-3.19 -19.9)"/><path class="cls-1" d="M12.4,53.44H3.19V42.14l6.26,3.65Z" transform="translate(-3.19 -19.9)"/><path class="cls-1" d="M39.3,29.16,39.38,20l-12.9-.05q1.74,2.87,3.47,5.74Z" transform="translate(-3.19 -19.9)"/><path class="cls-1" d="M59.1,35.19q8.26-7.63,16.51-15.29h-16L55.45,27Z" transform="translate(-3.19 -19.9)"/><path class="cls-1" d="M61.71,38.15,78.22,22.86V37.63l-7.13,4Z" transform="translate(-3.19 -19.9)"/><path class="cls-1" d="M56,38.67,42.1,51.2l.15-17.92L52,28.76Q54,33.71,56,38.67Z" transform="translate(-3.19 -19.9)"/><path class="cls-1" d="M64.32,53.61,45.2,53.44,58.58,41.1l9.73,3.3Z" transform="translate(-3.19 -19.9)"/><path class="cls-1" d="M69,53.44h9.21V42.14L72,45.79Z" transform="translate(-3.19 -19.9)"/><path class="cls-1" d="M42.12,29.16,42,20l12.9-.05-3.47,5.74Z" transform="translate(-3.19 -19.9)"/><path class="cls-1" d="M22.31,74.71,5.8,90h16L26,82.88Z" transform="translate(-3.19 -19.9)"/><path class="cls-1" d="M19.7,71.75,3.19,87.05V72.28l7.13-4Z" transform="translate(-3.19 -19.9)"/><path class="cls-1" d="M25.44,71.23,39.31,58.7l-.15,17.92-9.73,4.52Z" transform="translate(-3.19 -19.9)"/><path class="cls-1" d="M17.09,56.29l19.12.17L22.83,68.8,13.1,65.5Z" transform="translate(-3.19 -19.9)"/><path class="cls-1" d="M12.4,56.46H3.19v11.3l6.26-3.65Z" transform="translate(-3.19 -19.9)"/><path class="cls-1" d="M39.3,80.74,39.38,90l-12.9,0q1.74-2.86,3.47-5.73Z" transform="translate(-3.19 -19.9)"/><path class="cls-1" d="M59.1,74.71,75.61,90h-16l-4.17-7.12Z" transform="translate(-3.19 -19.9)"/><path class="cls-1" d="M61.71,71.75l16.51,15.3V72.28l-7.13-4Z" transform="translate(-3.19 -19.9)"/><path class="cls-1" d="M56,71.23,42.1,58.7l.15,17.92L52,81.14Q54,76.19,56,71.23Z" transform="translate(-3.19 -19.9)"/><path class="cls-1" d="M64.32,56.29l-19.12.17L58.58,68.8l9.73-3.3Z" transform="translate(-3.19 -19.9)"/><path class="cls-1" d="M69,56.46h9.21v11.3L72,64.11Z" transform="translate(-3.19 -19.9)"/><path class="cls-1" d="M42.12,80.74,42,90l12.9,0-3.47-5.73Z" transform="translate(-3.19 -19.9)"/></svg>